<svg height="511pt" viewBox="0 -20 511.99967 511" width="511pt" xmlns="http://www.w3.org/2000/svg"><path d="m318.054688 321.144531c-.75-.53125-1.566407-.894531-2.40625-1.117187 18.769531-15.773438 52.351562-49.496094 70.992187-78.53125 7.472656 3.941406 15.773437 6.003906 24.386719 6.003906 28.9375 0 52.480468-23.550781 52.480468-52.5s-23.542968-52.5-52.480468-52.5c-.960938 0-1.917969.03125-2.871094.082031 3.503906-7.277343 5.375-15.320312 5.375-23.4375 0-10.804687-3.09375-21.089843-8.9375-29.746093-9.386719-13.894532-23.027344-24.253907-39.800781-30.324219.859375-2.507813 1.460937-5.460938 1.472656-8.828125.042969-10.25-5.3125-20.59375-15.914063-30.746094-13.582031-13.011719-37.265624-19.898438-64.972656-18.90625-28.601562 1.027344-58.683594 10.1875-84.703125 25.792969-33.324219 19.988281-65.207031 51.054687-86.085937 73.59375-6.976563 7.535156-11.007813 17.324219-11.339844 27.5625-.171875 5.175781.621094 10.3125 2.277344 15.15625-1.445313-.121094-2.898438-.199219-4.367188-.199219-28.9375 0-52.480468 23.550781-52.480468 52.5s23.542968 52.5 52.480468 52.5c8.609375 0 16.902344-2.058594 24.375-5.996094 17.386719 27.339844 46.515625 56.90625 70.882813 78.433594-.277344.292969-.53125.597656-.785157.902344-.976562.21875-1.929687.632812-2.789062 1.261718-27.746094 20.253907-43.511719 51.945313-44.160156 84.703126-.082032 4.140624 3.207031 7.5625 7.347656 7.644531 4.132812.082031 7.566406-3.207031 7.648438-7.347657.339843-17.203124 5.542968-34.015624 14.828124-48.382812 6.511719 14.304688 9.976563 29.929688 10.097657 45.789062l.128906 17.074219c.03125 4.125 3.382813 7.445313 7.496094 7.445313h.058593c4.144532-.03125 7.476563-3.417969 7.445313-7.558594l-.128906-17.078125c-.160157-20.539063-5.28125-40.730469-14.839844-58.753906 1.3125-1.394531 2.671875-2.753907 4.066406-4.070313.949219 2.113282 2.265625 4.09375 3.988281 5.820313l10.601563 10.605469c-6.023437 7.730468-5.484375 18.953124 1.617187 26.058593l40.230469 40.25c1.382813 1.382813 3.273438 2.195313 5.300781 2.195313h.003907c2.03125 0 3.929687-.824219 5.300781-2.195313l40.230469-40.25c7.101562-7.101562 7.640625-18.328125 1.613281-26.058593l10.601562-10.605469c2.285157-2.285157 3.871094-5 4.796876-7.882813 1.859374 1.632813 3.652343 3.335938 5.371093 5.113282-1.851562 3.625-3.550781 7.351562-5.050781 11.140624-6.023438 15.242188-9.015625 31.335938-8.890625 47.835938l.132813 17.074219c.03125 4.125 3.382812 7.441406 7.496093 7.441406h.0625c4.140625-.03125 7.472657-3.414063 7.441407-7.554687l-.132813-17.078126c-.109375-14.5625 2.527344-28.761718 7.84375-42.203124.496094-1.257813 1.015625-2.503907 1.558594-3.746094 2.867187 4.277344 5.390625 8.820312 7.5 13.5 4.925781 10.933594 7.636719 22.597656 8.0625 34.664062.144531 4.136719 3.597656 7.390625 7.757812 7.230469 4.140625-.148437 7.378907-3.621094 7.230469-7.757813-1.191406-33.949218-18.242188-64.789062-45.445312-84.019531zm10.585937-197.960937 29.074219 29.085937h-203.175782l29.476563-29.308593c39.9375-39.703126 104.8125-39.605469 144.625.222656zm-203.042969-13.007813c20.210938-21.824219 50.984375-51.847656 82.796875-70.925781 51.054688-30.625 110.324219-29.28125 131.582031-8.917969 7.289063 6.976563 11.191407 13.746094 11.289063 19.574219.078125 4.789062-2.445313 7.726562-2.855469 8.167969-2.070312 1.835937-2.855468 4.5625-2.210937 7.257812.648437 2.714844 2.863281 4.746094 5.574219 5.429688 17.445312 4.394531 31.410156 13.746093 40.390624 27.035156 4.164063 6.167969 6.367188 13.546875 6.367188 21.347656 0 8.570313-2.886719 17.027344-8.128906 23.8125l-4.640625 6-6.414063 3.253907c-.097656.050781-.203125.0625-.304687.046874-.097657-.015624-.1875-.0625-.265625-.132812 0-.003906-.003906-.003906-.007813-.003906l-39.519531-39.539063c-7.796875-7.800781-16.429688-14.269531-25.617188-19.410156h6.410157c4.144531 0 7.5-3.355469 7.5-7.5 0-4.140625-3.355469-7.5-7.5-7.5h-63.949219c-.398438 0-.785156.042969-1.167969.101563-29.53125.320312-58.96875 11.660156-81.484375 34.050781l-40.007812 39.777343c-.007813.007813-.011719.011719-.015625.019532-.152344.148437-.386719.1875-.574219.089844l-6.417969-3.257813-2.445312-3.164063c-3.910157-5.058593-5.949219-11.363281-5.742188-17.753906.21875-6.632812 2.832031-12.972656 7.359375-17.859375zm8.910156 117.203125c-4.65625-8.128906-10.851562-20.335937-10.851562-32.378906 0-12.410156-10.09375-22.5-22.496094-22.5s-22.492187 10.089844-22.492187 22.5c0 4.140625 3.359375 7.5 7.5 7.5s7.5-3.359375 7.5-7.5c0-4.136719 3.363281-7.5 7.492187-7.5 4.132813 0 7.496094 3.363281 7.496094 7.5 0 12.496094 4.6875 24.328125 9.382812 33.488281-5.195312 2.632813-10.929687 4.011719-16.878906 4.011719-20.664062 0-37.480468-16.824219-37.480468-37.5 0-20.679688 16.816406-37.5 37.480468-37.5 5.957032 0 11.664063 1.367188 16.972656 4.066406 8.496094 4.3125 10.546876 5.800782 15.285157 5.695313h234.222656l-8.96875 20.457031c-5.171875 11.8125-16.847656 19.441406-29.738281 19.441406h-35.75c-6.011719 0-11.660156-2.339844-15.910156-6.578125-3.050782-3.0625-6.621094-5.433593-10.609376-7.050781-3.851562-1.570312-7.910156-2.359375-12.058593-2.359375h-.0625c-4.148438 0-8.210938.789063-12.070313 2.359375-3.980468 1.617188-7.550781 3.988281-10.597656 7.050781-4.25 4.238281-9.902344 6.578125-15.910156 6.578125h-32.699219c-12.902344 0-24.570313-7.628906-29.75-19.441406l-1.53125-3.488281c-1.660156-3.777344-6.070313-5.527344-9.878906-3.859375-3.789063 1.660156-5.519531 6.097656-3.859375 9.878906l1.53125 3.492188c7.570312 17.269531 24.636718 28.417968 43.488281 28.417968h32.699219c4.949218 0 9.777344-.960937 14.347656-2.851562 4.570312-1.886719 8.660156-4.628906 12.160156-8.128906 3.230469-3.21875 7.53125-5.007813 12.101563-5.007813 4.570312.007813 8.867187 1.789063 12.097656 5.007813 3.492187 3.5 7.589844 6.242187 12.160156 8.128906 4.570313 1.890625 9.402344 2.851562 14.351563 2.851562h35.746094c18.839843 0 35.910156-11.148437 43.480468-28.417968l12.019532-27.425782c6.046874-2.214844 13.433593-8.816406 26.597656-8.816406 20.667968 0 37.480468 16.820312 37.480468 37.5 0 20.675781-16.8125 37.5-37.480468 37.5-5.949219 0-11.683594-1.378906-16.878906-4.011719 4.699218-9.160156 9.386718-20.992187 9.386718-33.488281 0-4.136719 3.359375-7.5 7.492188-7.5 4.132812 0 7.496094 3.363281 7.496094 7.5 0 4.140625 3.355468 7.5 7.5 7.5 4.140624 0 7.5-3.359375 7.5-7.5 0-12.410156-10.09375-22.5-22.496094-22.5s-22.492188 10.089844-22.492188 22.5c0 12.042969-6.195312 24.25-10.855468 32.378906-18.957032 33.082032-64.839844 77.214844-79.132813 86.992188-26.445313 18.082031-60.914063 17.355468-86.398437-1.046875-13.324219-10.113281-57.929688-51.550781-77.640626-85.945313zm167.207032 109.40625-15.796875 15.800782c-2.925781 2.929687-2.925781 7.675781 0 10.605468l3.578125 3.578125c1.84375 1.839844 1.84375 4.839844 0 6.679688l-27.421875 27.4375v-37.535157c0-4.082031-3.335938-7.5-7.5-7.5-4.667969 0-7.5 3.796876-7.5 8.902344v36.132813l-27.425781-27.4375c-1.84375-1.84375-1.84375-4.839844 0-6.679688l3.578124-3.582031c2.925782-2.925781 2.925782-7.675781 0-10.601562l-15.796874-15.804688c-1.816407-1.816406-1.832032-4.789062-.066407-6.601562.070313-.070313.136719-.140626.203125-.214844l.996094-.996094c14.472656 9.003906 30.945312 13.582031 47.5 13.582031 15.707031 0 31.480469-4.121093 45.652344-12.449219 1.84375 1.84375 1.84375 4.839844 0 6.683594zm0 0"/><path d="m241.101562 242.5h29.984376c4.144531 0 7.5-3.359375 7.5-7.5s-3.355469-7.5-7.5-7.5h-29.984376c-4.140624 0-7.496093 3.359375-7.496093 7.5s3.355469 7.5 7.496093 7.5zm0 0"/><path d="m158.625 343.890625 11.789062-11.792969c1.289063.910156 2.796876 1.367188 4.308594 1.367188 1.921875 0 3.839844-.730469 5.304688-2.195313 2.929687-2.925781 2.929687-7.675781 0-10.605469l-29.988282-30c-2.925781-2.929687-7.675781-2.929687-10.605468 0-2.617188 2.617188-2.890625 6.683594-.824219 9.613282l-7.28125 7.28125c-15.832031-9.242188-31.46875-5.832032-47.664063 10.375-7.359374 7.359375-12.421874 17.660156-10.382812 28.773437-3.945312-.691406-7.960938-1.007812-11.996094-.933593-16.011718.300781-31.160156 6.722656-42.660156 18.078124-11.5 11.363282-18.101562 26.4375-18.59375 42.445313-.535156 17.449219 5.953125 33.84375 18.277344 46.167969 11.84375 11.84375 27.449218 18.296875 44.132812 18.296875.664063 0 1.332032-.007813 2-.03125 16.003906-.492188 31.074219-7.097657 42.429688-18.605469 11.351562-11.5 17.769531-26.65625 18.070312-42.671875.117188-6.253906-.691406-12.449219-2.398437-18.410156-1.066407-3.722657-.613281-7.6875 1.144531-11.109375 1.359375.320312 2.75.484375 4.136719.484375 4.691406 0 9.351562-1.828125 12.882812-5.386719l13.367188-13.371094c4.71875-4.757812 6.289062-11.609375 4.550781-17.769531zm-12.871094-12.652344c.027344-.632812.039063-1.269531.015625-1.910156-.148437-4.0625-1.363281-8.03125-3.453125-11.542969l6.8125-6.816406 10.601563 10.605469-10.8125 10.8125c-1.027344-.488281-2.085938-.871094-3.164063-1.148438zm-51.484375-2.699219c14.136719-14.144531 23.082031-12.75 32.164063-6.3125.289062.207032.574218.433594.875.695313 2.109375 1.835937 3.375 4.371094 3.46875 6.957031.0625 1.625-.320313 4.019532-2.457032 6.171875l-16.480468 16.492188c-2.914063 2.933593-7.113282 4.757812-10.964844 4.765625-.007812 0-.011719 0-.019531 0-2.582031 0-4.691407-.796875-6.269531-2.375 0 0 0 0 0-.003906-.015626-.011719-.03125-.027344-.046876-.042969-8.808593-8.847657-8.902343-17.710938-.269531-26.347657zm15.675781 80.632813c-.476562 25.335937-20.667968 45.789063-45.964843 46.566406-13.253907.40625-25.707031-4.519531-35.066407-13.878906-9.367187-9.367187-14.296874-21.832031-13.890624-35.101563.777343-25.3125 21.222656-45.511718 46.542968-45.988281 8.203125-.140625 16.292969 1.832031 23.46875 5.71875 4.253906 3.75 9.804688 5.820313 15.824219 5.820313h.046875c3.582031-.003906 7.214844-.738282 10.652344-2.078125.066406.136719.121094.277343.191406.414062-4.605469 7.257813-6.019531 16.175781-3.625 24.535157 1.296875 4.523437 1.90625 9.234374 1.820312 13.992187zm33.5-58.097656-13.367187 13.375c-1.070313 1.078125-2.714844 1.257812-3.957031.453125-.027344-.023438-.058594-.046875-.089844-.070313-.007812-.007812-.019531-.015625-.027344-.023437-.035156-.03125-.070312-.058594-.105468-.085938-.976563-.761718-1.179688-1.765625-1.214844-2.296875s.042968-1.550781.898437-2.414062l13.367188-13.375c1.121093-1.128907 2.785156-1.300781 4.035156-.414063.246094.175782.46875.394532.679687.667969.832032 1.082031 1.035157 2.921875-.21875 4.183594zm0 0"/><path d="m511.109375 389.304688c-2.382813-8.886719-9.109375-15.613282-17.992187-17.996094l-57.527344-15.421875c7.941406-14.496094 2.289062-28.597657-7.0625-37.953125-16.242188-16.25-31.917969-19.636719-47.796875-10.300782l-7.351563-7.355468c2.0625-2.925782 1.792969-6.996094-.824218-9.613282-2.933594-2.929687-7.679688-2.929687-10.609376 0l-29.988281 30c-2.925781 2.929688-2.925781 7.679688.003907 10.605469 1.464843 1.464844 3.382812 2.199219 5.304687 2.199219 1.507813 0 3.015625-.460938 4.304687-1.371094l11.953126 11.957032c-1.652344 6.125-.0625 12.917968 4.609374 17.625l13.328126 13.335937c3.546874 3.570313 8.21875 5.402344 12.917968 5.402344 1.507813 0 3.019532-.199219 4.496094-.582031 4.292969 5.304687 7.46875 11.464843 9.242188 18.082031l14.453124 53.96875c2.382813 8.890625 9.109376 15.617187 17.996094 18 2.230469.597656 4.476563.886719 6.699219.886719 6.628906 0 13.007813-2.601563 17.878906-7.476563l49.378907-49.402344c6.507812-6.507812 8.96875-15.703125 6.585937-24.589843zm-93.191406-60.765626c8.632812 8.632813 8.542969 17.496094-.265625 26.339844-.019532.019532-.039063.042969-.058594.0625-1.578125 1.570313-3.683594 2.371094-6.261719 2.371094-.007812 0-.019531 0-.03125 0-3.847656-.011719-8.042969-1.835938-10.972656-4.789062l-16.441406-16.449219-.007813-.011719c-2.292968-2.3125-2.59375-4.875-2.441406-6.613281.242188-2.8125 1.816406-5.445313 4.316406-7.21875 9.082032-6.441407 18.027344-7.835938 32.164063 6.308593zm-65.660157-6.964843 10.601563-10.605469 6.925781 6.929688c-1.835937 3.125-2.976562 6.613281-3.292968 10.257812-.089844 1.035156-.105469 2.0625-.0625 3.082031-1.121094.292969-2.226563.699219-3.292969 1.21875zm16.503907 29.519531c-1.253907-1.265625-1.074219-3.089844-.261719-4.171875.210938-.28125.441406-.511719.703125-.695313.535156-.378906 1.144531-.566406 1.753906-.566406.820313 0 1.648438.335938 2.300781 1l13.335938 13.339844c.882812.890625.949219 1.917969.910156 2.449219-.035156.535156-.25 1.550781-1.222656 2.289062-.074219.054688-.148438.113281-.222656.171875-1.242188.796875-2.882813.613282-3.96875-.480468zm125.152343 52.195312-49.378906 49.402344c-2.671875 2.667969-6.4375 3.679688-10.085937 2.703125-3.648438-.976562-6.414063-3.738281-7.390625-7.390625l-14.453125-53.964844c-2.316407-8.652343-6.441407-16.714843-12.050781-23.648437.027343-.054687.050781-.109375.074218-.164063 3.433594 1.339844 7.0625 2.074219 10.636719 2.082032h.0625c4.867187 0 9.4375-1.339844 13.261719-3.839844l64.644531 17.328125c3.644531.980469 6.40625 3.742187 7.382813 7.390625.984374 3.652344-.03125 7.429688-2.703126 10.101562zm0 0"/></svg>