<svg height="488pt" viewBox="-20 0 488 488.016" width="488pt" xmlns="http://www.w3.org/2000/svg"><path d="m384.007812 416.015625v56c0 4.398437-3.601562 8-8 8h-288l136-61.511719 111.679688-50.488281h.320312c16.71875 0 31.441407 8.488281 40 21.441406 5.039063 7.597657 8 16.726563 8 26.558594zm0 0" fill="#a0d468"/><path d="m224.007812 418.503906-136 61.511719h-16c-4.398437 0-8-3.601563-8-8v-56c0-9.832031 2.960938-18.960937 8-26.558594 8.558594-12.953125 23.28125-21.441406 40-21.441406h.320313zm0 0" fill="#8cc152"/><path d="m335.6875 368.015625-111.679688 50.488281-111.679687-50.488281h63.679687v-42c14.71875 6.398437 30.960938 10 48 10 17.039063 0 33.28125-3.601563 48-10v42zm0 0" fill="#eac6bb"/><path d="m104.007812 216.015625c0 49.199219 29.601563 91.441406 72 110v42h-64c-16.71875 0-31.441406 8.488281-40 21.441406v-205.519531l32 16zm0 0" fill="#967adc"/><path d="m336.007812 368.015625h-64v-42c42.398438-18.558594 72-60.800781 72-110v-16.078125l32-16v205.519531c-8.558593-12.953125-23.28125-21.441406-40-21.441406zm0 0" fill="#967adc"/><path d="m328.007812 49.144531c-27.199218-25.519531-63.761718-41.199219-104-41.199219-40.238281 0-76.878906 15.597657-104 41.199219v.078125c-27.601562 25.832032-45.519531 61.921875-47.761718 102.160156v.632813h31.761718v-.078125h24c8.878907 0 16-7.121094 16-16 0-8.800781-7.121093-16-16-16h16c8.878907 0 16-7.121094 16-16h40c13.28125 0 24-10.722656 24-24 0 13.277344 10.71875 24 24 24h40c0 8.878906 7.199219 16 16 16h16c-8.800781 0-16 7.199219-16 16 0 8.878906 7.199219 16 16 16h24v.078125h31.761719v-.078125c-2.082031-40.480469-20.082031-76.792969-47.761719-102.792969zm0 0" fill="#ac92ec"/><path d="m328.007812 49.144531c-27.199218-25.519531-63.761718-41.199219-104-41.199219-5.414062 0-10.75.328126-16.015624.878907 33.886718 3.550781 64.472656 18.222656 88.015624 40.320312 27.679688 26 45.679688 62.3125 47.761719 102.800781h.238281v.070313h31.761719v-.078125c-2.082031-40.480469-20.082031-76.792969-47.761719-102.792969zm0 0" fill="#967adc"/><path d="m224.007812 119.9375 16 24.078125-16 23.921875-16-24zm0 0" fill="#5d9cec"/><path d="m440.007812 151.9375-96 48v-47.921875h31.761719zm0 0" fill="#c9a7a1"/><path d="m224.007812 119.9375-16 24 16 24 16-23.921875zm120 80v16.078125c0 49.199219-29.601562 91.441406-72 110-14.71875 6.398437-30.960937 10-48 10-17.039062 0-33.28125-3.601563-48-10-42.398437-18.558594-72-60.800781-72-110v-64.078125h24c8.878907 0 16-7.121094 16-16 0-8.800781-7.121093-16-16-16h16c8.878907 0 16-7.121094 16-16h40c13.28125 0 24-10.722656 24-24 0 13.277344 10.71875 24 24 24h40c0 8.878906 7.199219 16 16 16h16c-8.800781 0-16 7.199219-16 16 0 8.878906 7.199219 16 16 16h24zm0 0" fill="#eac6bb"/><g fill="#d3b1a9"><path d="m312.007812 119.9375v2.230469c2.367188-1.382813 5.082032-2.230469 8-2.230469zm0 0"/><path d="m320.007812 151.9375c-2.917968 0-5.632812-.839844-8-2.21875v66.296875c0 49.199219-29.601562 91.441406-72 110-10.023437 4.359375-20.800781 7.296875-32 8.808594 5.25.703125 10.558594 1.191406 16 1.191406 17.039063 0 33.28125-3.601563 48-10 42.398438-18.558594 72-60.800781 72-110v-64.078125zm0 0"/><path d="m104.007812 152.015625v47.921875l-96-48 64.238282.078125zm0 0"/></g><path d="m64.007812 424.039062c-4.421874 0-8-3.574218-8-8 0-30.886718 25.128907-56.015624 56.015626-56.015624 4.425781 0 8 3.578124 8 8 0 4.425781-3.574219 8-8 8-22.0625 0-40.015626 17.953124-40.015626 40.015624 0 4.425782-3.574218 8-8 8zm0 0"/><path d="m384.007812 424.03125c-4.421874 0-8-3.574219-8-8 0-22.054688-17.945312-40-40-40-4.421874 0-8-3.574219-8-8 0-4.421875 3.578126-8 8-8 30.871094 0 56 25.128906 56 56 0 4.425781-3.574218 8-8 8zm0 0"/><path d="m176.007812 376.03125-63.984374-.007812c-4.421876 0-8-3.582032-8-8 0-4.421876 3.585937-8 8-8l63.984374.007812c4.425782 0 8 3.585938 8 8 0 4.425781-3.582031 8-8 8zm0 0"/><path d="m336.007812 376.03125-64-.007812c-4.421874 0-8-3.582032-8-8 0-4.421876 3.585938-8 8-8l64 .007812c4.425782 0 8 3.585938 8 8 0 4.425781-3.582031 8-8 8zm0 0"/><path d="m64.015625 480.015625c-4.414063 0-8-3.574219-8-8l-.007813-55.976563c0-4.414062 3.578126-8 8-8 4.417969 0 8 3.578126 8 8l.007813 55.976563c0 4.417969-3.574219 8-8 8zm0 0"/><path d="m72.015625 488.015625c-8.824219 0-16-7.175781-16-16 0-4.421875 3.578125-8 8-8 4.425781 0 8 3.578125 8 8v.015625c4.425781 0 8 3.570312 8 7.992188 0 4.417968-3.574219 7.992187-8 7.992187zm0 0"/><path d="m376.007812 488.015625c-4.421874 0-8-3.574219-8-8 0-4.421875 3.578126-8 8-8h.015626c0-4.421875 3.570312-8 7.992187-8 4.417969 0 7.992187 3.578125 7.992187 8 0 8.824219-7.175781 16-16 16zm0 0"/><path d="m384.007812 480.015625c-4.421874 0-8-3.574219-8-8v-55.984375c0-4.421875 3.578126-8 8-8 4.425782 0 8 3.578125 8 8v55.984375c0 4.425781-3.574218 8-8 8zm0 0"/><path d="m376.007812 488.015625h-303.992187c-4.421875 0-8-3.574219-8-8 0-4.421875 3.578125-8 8-8h303.992187c4.425782 0 8 3.578125 8 8 0 4.425781-3.574218 8-8 8zm0 0"/><path d="m176.007812 376.03125c-4.421874 0-8-3.574219-8-8v-42c0-4.421875 3.578126-8 8-8 4.425782 0 8 3.578125 8 8v42c0 4.425781-3.574218 8-8 8zm0 0"/><path d="m272.007812 376.023438c-4.421874 0-8-3.574219-8-8v-41.992188c0-4.421875 3.578126-8 8-8 4.425782 0 8 3.578125 8 8v41.992188c0 4.425781-3.574218 8-8 8zm0 0"/><path d="m224.007812 344.023438c-70.574218 0-128-57.421876-128-128 0-4.414063 3.578126-8 8-8 4.425782 0 8 3.585937 8 8 0 61.761718 50.238282 112 112 112 61.761719 0 112-50.238282 112-112 0-4.414063 3.578126-8 8-8 4.425782 0 8 3.585937 8 8 0 70.578124-57.421874 128-128 128zm0 0"/><path d="m104.007812 224.023438c-4.421874 0-8-3.582032-8-8v-64.007813c0-4.414063 3.578126-8 8-8 4.425782 0 8 3.585937 8 8v64.007813c0 4.417968-3.574218 8-8 8zm0 0"/><path d="m344.007812 224.023438c-4.421874 0-8-3.582032-8-8v-64.007813c0-4.414063 3.578126-8 8-8 4.425782 0 8 3.585937 8 8v64.007813c0 4.417968-3.574218 8-8 8zm0 0"/><path d="m304.007812 128c-13.230468 0-24-10.769531-24-24 0-4.414062 3.578126-8 8-8 4.425782 0 8 3.585938 8 8 0 4.40625 3.585938 8 8 8 4.425782 0 8 3.585938 8 8s-3.574218 8-8 8zm0 0"/><path d="m320.007812 160c-13.230468 0-24-10.769531-24-24s10.769532-24 24-24c4.425782 0 8 3.585938 8 8s-3.574218 8-8 8c-4.414062 0-8 3.59375-8 8s3.585938 8 8 8c4.425782 0 8 3.585938 8 8s-3.574218 8-8 8zm0 0"/><path d="m320.007812 128h-16c-4.421874 0-8-3.585938-8-8s3.578126-8 8-8h16c4.425782 0 8 3.585938 8 8s-3.574218 8-8 8zm0 0"/><path d="m344.007812 160h-24c-4.421874 0-8-3.585938-8-8s3.578126-8 8-8h24c4.425782 0 8 3.585938 8 8s-3.574218 8-8 8zm0 0"/><path d="m144.015625 128c-4.421875 0-8-3.585938-8-8s3.578125-8 8-8c4.417969 0 8-3.59375 8-8 0-4.414062 3.578125-8 8-8 4.425781 0 8 3.585938 8 8 0 13.230469-10.769531 24-24 24zm0 0"/><path d="m128.015625 160c-4.421875 0-8-3.585938-8-8s3.578125-8 8-8c4.417969 0 8-3.59375 8-8s-3.582031-8-8-8c-4.421875 0-8-3.585938-8-8s3.578125-8 8-8c13.230469 0 24 10.769531 24 24s-10.769531 24-24 24zm0 0"/><path d="m144.015625 128h-16c-4.421875 0-8-3.585938-8-8s3.578125-8 8-8h16c4.425781 0 8 3.585938 8 8s-3.574219 8-8 8zm0 0"/><path d="m128.015625 160h-24c-4.421875 0-8-3.585938-8-8s3.578125-8 8-8h24c4.425781 0 8 3.585938 8 8s-3.574219 8-8 8zm0 0"/><path d="m200.007812 112h-39.992187c-4.421875 0-8-3.585938-8-8s3.578125-8 8-8h39.992187c4.425782 0 8 3.585938 8 8s-3.574218 8-8 8zm0 0"/><path d="m375.800781 160c-4.226562 0-7.761719-3.3125-7.984375-7.585938-3.976562-76.492187-67.144531-136.414062-143.808594-136.414062-76.367187 0-139.519531 59.664062-143.785156 135.832031-.238281 4.40625-4.09375 7.71875-8.429687 7.542969-4.417969-.246094-7.792969-4.023438-7.535157-8.429688 4.726563-84.640624 74.902344-150.945312 159.75-150.945312 85.175782 0 155.367188 66.585938 159.792969 151.585938.222657 4.40625-3.167969 8.167968-7.578125 8.398437-.144531.015625-.285156.015625-.421875.015625zm0 0"/><path d="m200.007812 112c-4.421874 0-8-3.585938-8-8s3.578126-8 8-8c8.824219 0 16-7.175781 16-16 0-4.414062 3.578126-8 8-8 4.425782 0 8 3.585938 8 8 0 17.648438-14.351562 32-32 32zm0 0"/><path d="m288.007812 112h-39.992187c-4.421875 0-8-3.585938-8-8s3.578125-8 8-8h39.992187c4.425782 0 8 3.585938 8 8s-3.574218 8-8 8zm0 0"/><path d="m248.015625 112c-17.648437 0-32-14.351562-32-32 0-4.414062 3.578125-8 8-8 4.425781 0 8 3.585938 8 8 0 8.824219 7.175781 16 16 16 4.425781 0 8 3.585938 8 8s-3.574219 8-8 8zm0 0"/><path d="m88.023438 488.015625c-3.046876 0-5.960938-1.75-7.296876-4.703125-1.824218-4.023438-.03125-8.769531 3.992188-10.585938l247.992188-112.160156c4.03125-1.824218 8.777343-.03125 10.585937 3.992188 1.824219 4.027344.03125 8.769531-3.992187 10.585937l-247.992188 112.160157c-1.074219.488281-2.183594.710937-3.289062.710937zm0 0"/><path d="m224.039062 426.527344c-1.101562 0-2.214843-.222656-3.285156-.710938l-112.027344-50.664062c-4.023437-1.824219-5.816406-6.558594-3.992187-10.585938 1.824219-4.023437 6.546875-5.8125 10.585937-3.992187l112.023438 50.671875c4.023438 1.824218 5.816406 6.5625 3.992188 10.585937-1.335938 2.953125-4.246094 4.695313-7.296876 4.695313zm0 0"/><path d="m376.007812 397.480469c-4.421874 0-8-3.578125-8-8v-205.480469c0-4.414062 3.578126-8 8-8 4.425782 0 8 3.585938 8 8v205.480469c0 4.414062-3.574218 8-8 8zm0 0"/><path d="m344.007812 160.007812c-4.414062 0-8-3.582031-8-8 0-4.414062 3.578126-8 8-8l96-.007812c4.417969 0 8 3.585938 8 8s-3.574218 8-8 8zm0 0"/><path d="m344.015625 208c-2.9375 0-5.757813-1.617188-7.167969-4.425781-1.976562-3.949219-.375-8.757813 3.578125-10.734375l96-48c3.949219-1.976563 8.75-.375 10.734375 3.574218 1.976563 3.953126.375 8.761719-3.574218 10.738282l-96 48c-1.144532.574218-2.371094.847656-3.570313.847656zm0 0"/><path d="m72.007812 397.480469c-4.421874 0-8-3.578125-8-8v-205.480469c0-4.414062 3.578126-8 8-8 4.425782 0 8 3.585938 8 8v205.480469c0 4.414062-3.574218 8-8 8zm0 0"/><path d="m104.007812 160.007812-96-.007812c-4.421874 0-7.9999995-3.585938-7.9999995-8s3.5859375-8 7.9999995-8l96 .007812c4.425782 0 8 3.585938 8 8 0 4.417969-3.582031 8-8 8zm0 0"/><path d="m104 208c-1.199219 0-2.425781-.273438-3.566406-.839844l-96-48c-3.953125-1.976562-5.554688-6.785156-3.578125-10.734375 1.984375-3.953125 6.785156-5.554687 10.738281-3.578125l96 48c3.949219 1.976563 5.550781 6.785156 3.574219 10.738282-1.40625 2.796874-4.230469 4.414062-7.167969 4.414062zm0 0"/><path d="m224.007812 128c-4.421874 0-8-3.585938-8-8v-40c0-4.414062 3.578126-8 8-8 4.425782 0 8 3.585938 8 8v40c0 4.414062-3.574218 8-8 8zm0 0"/><path d="m136.015625 80.007812c-13.230469 0-24.007813-10.769531-24.007813-24.007812 0-4.414062 3.578126-8 8-8 4.425782 0 8 3.585938 8 8s3.59375 8.007812 8.007813 8.007812c4.425781 0 8 3.585938 8 8 0 4.417969-3.574219 8-8 8zm0 0"/><path d="m224.007812 80.007812h-87.992187c-4.421875 0-8-3.582031-8-8 0-4.414062 3.578125-8 8-8h87.992187c4.425782 0 8 3.585938 8 8 0 4.417969-3.574218 8-8 8zm0 0"/><path d="m120.007812 64c-4.421874 0-8-3.585938-8-8v-6.839844c0-4.417968 3.578126-8 8-8 4.425782 0 8 3.582032 8 8v6.839844c0 4.414062-3.574218 8-8 8zm0 0"/><path d="m312 80.007812c-4.425781 0-8-3.582031-8-8 0-4.414062 3.574219-8 8-8 4.414062 0 8.007812-3.59375 8.007812-8.007812s3.578126-8 8-8c4.425782 0 8 3.585938 8 8 0 13.238281-10.777343 24.007812-24.007812 24.007812zm0 0"/><path d="m312 80.007812h-87.992188c-4.421874 0-8-3.582031-8-8 0-4.414062 3.578126-8 8-8h87.992188c4.425781 0 8 3.585938 8 8 0 4.417969-3.574219 8-8 8zm0 0"/><path d="m328.007812 64c-4.421874 0-8-3.585938-8-8v-6.839844c0-4.417968 3.578126-8 8-8 4.425782 0 8 3.582032 8 8v6.839844c0 4.414062-3.574218 8-8 8zm0 0"/><path d="m240.015625 152.007812c-2.582031 0-5.128906-1.246093-6.664063-3.558593l-16-24.007813c-2.457031-3.671875-1.457031-8.648437 2.214844-11.097656 3.691406-2.464844 8.640625-1.464844 11.097656 2.214844l16 24.007812c2.457032 3.671875 1.457032 8.648438-2.214843 11.097656-1.371094.910157-2.914063 1.34375-4.433594 1.34375zm0 0"/><path d="m224 176c-1.519531 0-3.070312-.433594-4.433594-1.34375-3.679687-2.457031-4.671875-7.417969-2.214844-11.097656l16-23.992188c2.449219-3.679687 7.417969-4.671875 11.097657-2.214844 3.679687 2.457032 4.671875 7.417969 2.214843 11.097657l-16 23.992187c-1.535156 2.3125-4.078124 3.558594-6.664062 3.558594zm0 0"/><path d="m224.015625 176c-2.582031 0-5.128906-1.246094-6.664063-3.558594l-16-24c-2.457031-3.671875-1.464843-8.648437 2.214844-11.097656 3.679688-2.464844 8.648438-1.464844 11.097656 2.214844l16 24c2.457032 3.671875 1.464844 8.648437-2.214843 11.097656-1.371094.910156-2.914063 1.34375-4.433594 1.34375zm0 0"/><path d="m208 152c-1.519531 0-3.0625-.433594-4.433594-1.34375-3.679687-2.449219-4.671875-7.417969-2.214844-11.097656l16-24c2.441407-3.679688 7.402344-4.679688 11.097657-2.214844 3.679687 2.449219 4.671875 7.417969 2.214843 11.097656l-16 24c-1.535156 2.3125-4.078124 3.558594-6.664062 3.558594zm0 0"/></svg>