<svg id="Layer_1_1_" enable-background="new 0 0 64 64" height="512" viewBox="0 0 64 64" width="512" xmlns="http://www.w3.org/2000/svg"><path d="m33.695 52.378-1.662 1.662-1.671-1.671-5.362 7.631-16-5v7h46v-6.946l-16 4.946z" fill="#bebebe"/><path d="m48 42c2-4-.102-7.203-2.373-8.339s-3.627-4.661-3.627-4.661h-20s-1.356 3.525-3.627 4.661-4.373 4.339-2.373 8.339h.168c-.426.674-.71 1.313-.71 1.881 0 2.271 1.136 3.407 2.271 3.407 1.136 0 2.271 0 2.271-1.136l1.982-2.043c.074-.243.199-.468.381-.651l2.637-2.458h4c1.657 0 3-1.343 3-3 0 1.657 1.343 3 3 3h4l2.703 2.459c.208.208.347.469.412.75l1.885 1.944c0 1.136 1.136 1.136 2.271 1.136 1.136 0 2.271-1.136 2.271-3.407 0-.568-.284-1.207-.71-1.881h.168z" fill="#7d5a17"/><path d="m41 29c-4.183 0-13.817 0-18 0 0 0-.36 6.98 2 12 0-1.657 1.343-3 3-3h4 4c1.657 0 3 1.343 3 3 2.953-5.382 2-12 2-12z" fill="#ffecc7"/><path d="m36.533 51.79s1.125-1.125 2.25-2.25 1.125-3.375 1.125-3.375l2.25 1.125v-2.731c0-.412-.164-.808-.455-1.099l-2.703-2.46h-4c-1.657 0-3-1.343-3-3 0 1.657-1.343 3-3 3h-4l-2.636 2.459c-.292.292-.455.687-.455 1.099v2.731l2.25-1.125s0 2.25 1.125 3.375 2.25 2.25 2.25 2.25v-2.25l2.829 2.829 1.671 1.671 1.662-1.662 2.838-2.838v2.251z" fill="#ab7b20"/><path d="m30 23v-9.658c-3.422 1.136-6.491 5.036-8.004 9.658h.005z" fill="#f5f5f5"/><path d="m33 10h-2c-.552 0-1 .448-1 1v2.342 9.658h4v-9.658-2.342c0-.552-.448-1-1-1z" fill="#bebebe"/><path d="m42.007 23c-1.512-4.625-4.584-8.522-8.007-9.658v9.658z" fill="#f5f5f5"/><path d="m36 38h-4c0 1.657 1.343 3 3 3h4c0-1.657-1.343-3-3-3z" fill="#7d5a17"/><path d="m32 38h-4c-1.657 0-3 1.343-3 3h4c1.657 0 3-1.343 3-3z" fill="#7d5a17"/><path d="m42.433 24.465c5.528-4.026 7.553-11.014 5.646-17.689l-1.079-3.776v1.199c0 5.666-2.658 10.875-7.38 13.867" fill="#f5f5f5"/><path d="m24.393 18.045c-4.722-2.991-7.393-8.18-7.393-13.846v-1.199l-1.079 3.777c-1.907 6.675.144 13.559 5.672 17.585" fill="#f5f5f5"/><path d="m21.993 23c-.629 1.924-.993 3.972-.993 6h22c0-2.028-.364-4.076-.993-6z" fill="#bebebe"/><path d="m53.295 48.195-4.778-3.744h-.011c-.176 1.884-1.2 2.837-2.235 2.837-1.136 0-2.271 0-2.271-1.136l-1.621-1.671-.23.001c.002.026.009.05.009.076v2.731l-2.25-1.125s0 2.25-1.125 3.375-2.25 2.25-2.25 2.25v-2.25l-2.838 2.838 5.305 7.623 16-4.946v-3.311c0-1.38-.627-2.686-1.705-3.548z" fill="#707070"/><path d="m27.533 51.79s-1.125-1.125-2.25-2.25-1.125-3.375-1.125-3.375l-2.25 1.125v-2.706l-.388.002-1.52 1.567c0 1.136-1.136 1.136-2.271 1.136-1.005 0-2.006-.893-2.224-2.672h-.005l-4.796 3.58c-1.077.86-1.704 2.166-1.704 3.545v3.258l16 5 5.362-7.631-2.829-2.829z" fill="#707070"/><path d="m27.533 49.54v2.25s-1.125-1.125-2.25-2.25-1.125-3.375-1.125-3.375l-2.25 1.125.455-3.83-2.363 2.693c0 1.136-1.136 1.136-2.271 1.136-1.005 0-2.006-.893-2.224-2.672h-.005l-2.762 2.062c.463 1.039 1.055 1.98 1.788 2.403 2.089 1.205 5.628.241 7.475.482s1.491 2.893 4.321 4.018c.847.337 1.764.593 2.635.789l1.406-2z" fill="#575757"/><path d="m42.24 49.563c1.847-.241 5.385.723 7.475-.482.714-.412 1.293-1.314 1.75-2.319l-2.948-2.31h-.011c-.176 1.884-1.2 2.837-2.235 2.837-1.136 0-2.271 0-2.271-1.136l-2.297-2.693.455 3.83-2.25-1.125s0 2.25-1.125 3.375-2.25 2.25-2.25 2.25v-2.25l-2.838 2.838 1.413 2.03c.922-.2 1.906-.469 2.811-.828 2.83-1.125 2.474-3.776 4.321-4.017z" fill="#575757"/><path d="m25 25h2v2h-2z"/><path d="m31 25h2v2h-2z"/><path d="m37 25h2v2h-2z"/><path d="m53.912 47.408-4.377-3.429c0-.034.007-.063.007-.097 0-1.486-1.21-2.999-2.491-4.601-.913-1.142-2.051-2.564-2.051-3.348h-2c0 1.486 1.209 2.998 2.49 4.599.914 1.143 2.052 2.565 2.052 3.351 0 1.58-.64 2.406-1.271 2.406-.425 0-1.137 0-1.271-.136v-1.153h-1.842v-.441c0-.682-.266-1.323-.782-1.839l-2.144-1.95c1.607-3.322 1.929-6.916 1.919-9.28.698 1.128 1.719 2.41 3.029 3.066 2.161 1.08 2.854 1.967 2.854 3.647h2c0-2.869-1.583-4.248-3.959-5.437-1.077-.539-1.986-1.86-2.566-2.925.288-.175.491-.478.491-.841 0-1.396-.171-2.783-.461-4.135 5.34-4.229 7.504-11.354 5.501-18.362l-1.079-3.777c-.137-.48-.61-.791-1.1-.716-.493.069-.861.491-.861.99v1.199c0 5.092-2.29 9.701-6.168 12.513-1.407-1.832-3.068-3.246-4.832-4.025v-1.687c0-1.103-.897-2-2-2h-2c-1.103 0-2 .897-2 2v1.687c-1.759.777-3.414 2.184-4.818 4.007-3.887-2.817-6.182-7.419-6.182-12.495v-1.199c0-.499-.368-.921-.861-.99-.491-.071-.963.235-1.1.716l-1.079 3.777c-1.985 6.947.188 14.03 5.523 18.256-.304 1.385-.483 2.809-.483 4.241 0 .363.203.666.492.841-.58 1.065-1.489 2.386-2.566 2.925-2.376 1.188-3.959 2.567-3.959 5.437h2c0-1.681.693-2.567 2.854-3.647 1.409-.705 2.482-2.134 3.18-3.317.078 2.387.44 6.216 1.805 9.509l-2.148 2.005c-.482.482-.748 1.124-.748 1.806v.441h-1.91l.042 1.169c-.176.119-.887.119-1.313.119-.632 0-1.271-.826-1.271-2.406 0-.785 1.138-2.208 2.052-3.351 1.281-1.601 2.49-3.112 2.49-4.599h-2c0 .784-1.138 2.206-2.052 3.349-1.281 1.602-2.491 3.114-2.491 4.601 0 .089.015.165.018.251l-4.396 3.282c-1.321 1.058-2.079 2.635-2.079 4.327v10.258h2v-5.64l14.702 4.594c.098.031.198.046.298.046.319 0 .627-.153.818-.425l4.678-6.658.829.829c.195.195.451.293.707.293s.512-.098.707-.293l.817-.817 4.622 6.641c.192.275.501.43.822.43.099 0 .198-.015.295-.045l14.705-4.546v5.591h2v-10.258c0-1.692-.758-3.269-2.088-4.334zm-17.912-10.408h-4-4c-1.165 0-2.206.509-2.938 1.307-.949-3.214-1.08-6.68-1.08-8.307h16.108c.108 1.566.162 5.052-1.043 8.438-.735-.872-1.821-1.438-3.047-1.438zm1.731 3h-2.731c-.739 0-1.385-.402-1.731-1h2.731c.739 0 1.385.402 1.731 1zm-7-1c-.346.598-.993 1-1.731 1h-2.731c.346-.598.993-1 1.731-1zm.269-17v-7.891c.333-.066.666-.109 1-.109s.667.043 1 .109v7.891zm10.275 2c.371 1.296.614 2.644.695 4h-19.94c.081-1.356.324-2.704.695-4zm6.204-15.426c1.029 5.4-.662 10.701-4.502 14.153-.513-1.57-1.203-3.049-2.019-4.384 3.265-2.353 5.555-5.801 6.521-9.769zm-6.902 13.426h-5.577v-7.103c2.253 1.307 4.288 3.937 5.577 7.103zm-9.577-11h2v1.085c-.332-.05-.666-.085-1-.085s-.668.035-1 .085zm-2 3.897v7.103h-5.577c1.289-3.166 3.324-5.796 5.577-7.103zm-12.479-6.336c.968 3.96 3.262 7.407 6.533 9.763-.805 1.314-1.486 2.769-1.998 4.313-3.91-3.472-5.586-8.656-4.535-14.076zm8.081 50.267-14.602-4.563v-2.523c0-1.082.484-2.09 1.303-2.745l3.645-2.721c.606 1.317 1.692 2.012 2.781 2.012.936 0 2.76-.005 3.179-1.469v.47c0 .347.18.668.474.851.296.184.664.197.973.044l.975-.487c.175.834.53 1.834 1.246 2.55l2.25 2.25c.286.285.715.372 1.09.217.326-.135.553-.43.605-.771l.539.539zm7.431-6.202-3.793-3.793c-.287-.287-.717-.374-1.09-.217-.326.135-.553.43-.605.771l-.555-.555c-.675-.675-.83-2.156-.832-2.668 0-.347-.18-.668-.474-.851-.295-.184-.664-.199-.973-.044l-.803.401v-1.113c0-.146.06-.289.138-.368l2.348-2.189h3.606c1.2 0 2.266-.542 3-1.382.734.84 1.8 1.382 3 1.382h3.614l2.382 2.165c.105.105.163.245.163.394v1.113l-.803-.401c-.31-.155-.678-.14-.973.044-.294.183-.474.504-.474.851 0 .477-.153 1.988-.832 2.668l-.555.555c-.053-.342-.28-.637-.605-.771-.375-.157-.804-.07-1.09.217zm7.37 6.203-4.41-6.336.551-.551c.053.342.28.637.605.771.374.155.804.068 1.09-.217l2.25-2.25c.716-.716 1.071-1.716 1.246-2.55l.975.487c.31.153.678.14.973-.044.294-.183.474-.504.474-.851v-.31c.508 1.294 2.215 1.308 3.113 1.308 1.116 0 2.228-.73 2.824-2.113l3.575 2.801c.847.678 1.331 1.686 1.331 2.768v2.574z"/><path d="m37.361 31.577-3.406 1.136.632 1.896.413-.137v.528h2v-1.195l.994-.331z"/><path d="m26.006 33.474.994.331v1.195h2v-.528l.413.137.632-1.896-3.406-1.136z"/></svg>